<svg width="27" height="31" viewBox="0 0 27 31" fill="none" xmlns="http://www.w3.org/2000/svg">
<path d="M6.88663 0.574219H16.9794L26.2089 9.80273V27.5479C26.2089 28.9213 25.0951 30.0352 23.7216 30.0352H6.88663C5.51328 30.035 4.40031 28.9212 4.4003 27.5479V3.06055C4.40047 1.68729 5.51338 0.574393 6.88663 0.574219Z" stroke="#DBDBDB" stroke-width="1.14783" stroke-linecap="round"/>
<rect y="14.5391" width="20.2783" height="12.2435" rx="1.53043" fill="#0DB664"/>
<path d="M7.43992 19.7222H6.2497C6.22796 19.5682 6.18357 19.4314 6.11655 19.3119C6.04952 19.1905 5.96347 19.0872 5.85839 19.0021C5.75332 18.917 5.63194 18.8517 5.49426 18.8064C5.35839 18.7612 5.21075 18.7385 5.05133 18.7385C4.76328 18.7385 4.51238 18.8101 4.29861 18.9532C4.08484 19.0945 3.91908 19.301 3.80133 19.5728C3.68357 19.8427 3.6247 20.1706 3.6247 20.5564C3.6247 20.9532 3.68357 21.2865 3.80133 21.5564C3.92089 21.8264 4.08756 22.0302 4.30133 22.1679C4.5151 22.3055 4.76238 22.3744 5.04318 22.3744C5.20078 22.3744 5.34662 22.3536 5.48068 22.3119C5.61655 22.2702 5.73702 22.2095 5.84209 22.1298C5.94716 22.0483 6.03412 21.9496 6.10296 21.8336C6.17361 21.7177 6.22252 21.5854 6.2497 21.4369L7.43992 21.4423C7.40912 21.6978 7.33213 21.9441 7.20894 22.1814C7.08756 22.417 6.92361 22.628 6.71709 22.8146C6.51238 22.9994 6.26781 23.1461 5.98339 23.2548C5.70078 23.3617 5.38104 23.4151 5.02415 23.4151C4.52778 23.4151 4.08394 23.3028 3.69263 23.0782C3.30314 22.8536 2.99517 22.5284 2.76872 22.1026C2.54408 21.6769 2.43176 21.1615 2.43176 20.5564C2.43176 19.9496 2.54589 19.4333 2.77415 19.0075C3.00241 18.5818 3.3122 18.2575 3.7035 18.0347C4.09481 17.8101 4.53502 17.6978 5.02415 17.6978C5.34662 17.6978 5.64553 17.743 5.92089 17.8336C6.19807 17.9242 6.44354 18.0564 6.65731 18.2304C6.87107 18.4025 7.04499 18.6135 7.17905 18.8635C7.31492 19.1135 7.40187 19.3997 7.43992 19.7222Z" fill="white"/>
<path d="M11.1496 19.3744C11.1279 19.1552 11.0346 18.9849 10.8698 18.8635C10.7049 18.7421 10.4812 18.6814 10.1986 18.6814C10.0065 18.6814 9.84439 18.7086 9.71214 18.763C9.5799 18.8155 9.47845 18.8889 9.4078 18.9831C9.33896 19.0773 9.30453 19.1842 9.30453 19.3037C9.30091 19.4034 9.32175 19.4903 9.36704 19.5646C9.41414 19.6389 9.47845 19.7032 9.55997 19.7575C9.64149 19.8101 9.73569 19.8563 9.84258 19.8961C9.94946 19.9342 10.0636 19.9668 10.185 19.9939L10.685 20.1135C10.9277 20.1679 11.1505 20.2403 11.3534 20.3309C11.5563 20.4215 11.7321 20.5329 11.8806 20.6651C12.0292 20.7974 12.1442 20.9532 12.2257 21.1325C12.3091 21.3119 12.3516 21.5175 12.3534 21.7494C12.3516 22.09 12.2647 22.3853 12.0926 22.6353C11.9223 22.8834 11.6759 23.0764 11.3534 23.2141C11.0328 23.3499 10.646 23.4179 10.1931 23.4179C9.74385 23.4179 9.35254 23.349 9.01921 23.2113C8.68769 23.0737 8.42863 22.8699 8.24203 22.5999C8.05725 22.3282 7.96033 21.9921 7.95127 21.5918H9.08986C9.10254 21.7784 9.15598 21.9342 9.25019 22.0592C9.3462 22.1824 9.47392 22.2757 9.63334 22.3391C9.79457 22.4007 9.97664 22.4314 10.1795 22.4314C10.3788 22.4314 10.5518 22.4025 10.6986 22.3445C10.8471 22.2865 10.9621 22.2059 11.0437 22.1026C11.1252 21.9994 11.1659 21.8807 11.1659 21.7467C11.1659 21.6217 11.1288 21.5166 11.0545 21.4314C10.9821 21.3463 10.8752 21.2738 10.7339 21.2141C10.5944 21.1543 10.4232 21.0999 10.2203 21.051L9.61432 20.8988C9.14511 20.7847 8.77464 20.6063 8.5029 20.3635C8.23117 20.1208 8.0962 19.7938 8.09801 19.3825C8.0962 19.0456 8.18588 18.7512 8.36703 18.4994C8.55001 18.2476 8.80091 18.051 9.11975 17.9097C9.43859 17.7684 9.80091 17.6978 10.2067 17.6978C10.6198 17.6978 10.9803 17.7684 11.2882 17.9097C11.598 18.051 11.839 18.2476 12.0111 18.4994C12.1832 18.7512 12.2719 19.0429 12.2774 19.3744H11.1496Z" fill="white"/>
<path d="M13.9973 17.7738L15.3424 22.0021H15.394L16.7418 17.7738H18.0462L16.1277 23.3391H14.6114L12.6902 17.7738H13.9973Z" fill="white"/>
</svg>
