<svg width="30" height="34" viewBox="0 0 30 34" fill="none" xmlns="http://www.w3.org/2000/svg">
<path d="M7.51282 0.625977H18.5236L28.5909 10.6934V30.0518C28.5909 31.5501 27.3764 32.7656 25.8781 32.7656H7.51282C6.01457 32.7655 4.79993 31.55 4.79993 30.0518V3.33887C4.80007 1.8407 6.01465 0.626119 7.51282 0.625977Z" stroke="#DBDBDB" stroke-width="1.25217" stroke-linecap="round"/>
<rect y="15.8608" width="22.9565" height="13.3565" rx="1.66957" fill="#3873FF"/>
<path d="M4.88484 25.4608H2.73267V19.3896H4.90263C5.5133 19.3896 6.03899 19.5112 6.4797 19.7543C6.92041 19.9954 7.25935 20.3422 7.4965 20.7948C7.73563 21.2474 7.8552 21.7889 7.8552 22.4193C7.8552 23.0517 7.73563 23.5952 7.4965 24.0497C7.25935 24.5043 6.91844 24.8531 6.47377 25.0962C6.03109 25.3392 5.50144 25.4608 4.88484 25.4608ZM4.01626 24.361H4.83148C5.21093 24.361 5.5301 24.2938 5.78899 24.1594C6.04986 24.023 6.24551 23.8126 6.37595 23.528C6.50836 23.2414 6.57456 22.8719 6.57456 22.4193C6.57456 21.9707 6.50836 21.6041 6.37595 21.3195C6.24551 21.0349 6.05085 20.8254 5.79195 20.691C5.53306 20.5566 5.21389 20.4894 4.83444 20.4894H4.01626V24.361Z" fill="white"/>
<path d="M14.2181 22.4252C14.2181 23.0873 14.0926 23.6505 13.8416 24.1149C13.5926 24.5794 13.2527 24.9341 12.8219 25.1792C12.393 25.4223 11.9108 25.5438 11.3752 25.5438C10.8357 25.5438 10.3515 25.4213 9.92268 25.1762C9.49382 24.9311 9.15489 24.5764 8.90588 24.112C8.65687 23.6476 8.53236 23.0853 8.53236 22.4252C8.53236 21.7632 8.65687 21.1999 8.90588 20.7355C9.15489 20.2711 9.49382 19.9173 9.92268 19.6742C10.3515 19.4292 10.8357 19.3066 11.3752 19.3066C11.9108 19.3066 12.393 19.4292 12.8219 19.6742C13.2527 19.9173 13.5926 20.2711 13.8416 20.7355C14.0926 21.1999 14.2181 21.7632 14.2181 22.4252ZM12.9167 22.4252C12.9167 21.9964 12.8525 21.6347 12.7241 21.3402C12.5976 21.0458 12.4187 20.8225 12.1875 20.6703C11.9563 20.5181 11.6855 20.442 11.3752 20.442C11.065 20.442 10.7942 20.5181 10.563 20.6703C10.3318 20.8225 10.1519 21.0458 10.0235 21.3402C9.89698 21.6347 9.83374 21.9964 9.83374 22.4252C9.83374 22.8541 9.89698 23.2157 10.0235 23.5102C10.1519 23.8047 10.3318 24.028 10.563 24.1802C10.7942 24.3323 11.065 24.4084 11.3752 24.4084C11.6855 24.4084 11.9563 24.3323 12.1875 24.1802C12.4187 24.028 12.5976 23.8047 12.7241 23.5102C12.8525 23.2157 12.9167 22.8541 12.9167 22.4252Z" fill="white"/>
<path d="M20.3587 21.5151H19.0603C19.0366 21.3472 18.9882 21.1979 18.9151 21.0675C18.8419 20.9351 18.7481 20.8225 18.6334 20.7296C18.5188 20.6367 18.3864 20.5655 18.2362 20.5161C18.088 20.4667 17.9269 20.442 17.753 20.442C17.4388 20.442 17.1651 20.5201 16.9319 20.6762C16.6987 20.8304 16.5178 21.0557 16.3894 21.3521C16.2609 21.6466 16.1967 22.0043 16.1967 22.4252C16.1967 22.858 16.2609 23.2217 16.3894 23.5161C16.5198 23.8106 16.7016 24.0329 16.9348 24.1831C17.168 24.3333 17.4378 24.4084 17.7441 24.4084C17.916 24.4084 18.0751 24.3857 18.2214 24.3402C18.3696 24.2948 18.501 24.2286 18.6157 24.1416C18.7303 24.0527 18.8251 23.945 18.9002 23.8185C18.9773 23.692 19.0307 23.5477 19.0603 23.3857L20.3587 23.3916C20.3251 23.6703 20.2411 23.9391 20.1068 24.1979C19.9743 24.4549 19.7955 24.6851 19.5702 24.8887C19.3469 25.0902 19.0801 25.2503 18.7698 25.3689C18.4615 25.4855 18.1127 25.5438 17.7234 25.5438C17.1819 25.5438 16.6977 25.4213 16.2708 25.1762C15.8459 24.9311 15.5099 24.5764 15.2629 24.112C15.0178 23.6476 14.8953 23.0853 14.8953 22.4252C14.8953 21.7632 15.0198 21.1999 15.2688 20.7355C15.5178 20.2711 15.8558 19.9173 16.2826 19.6742C16.7095 19.4292 17.1898 19.3066 17.7234 19.3066C18.0751 19.3066 18.4012 19.356 18.7016 19.4549C19.004 19.5537 19.2718 19.6979 19.505 19.8877C19.7382 20.0754 19.9279 20.3057 20.0742 20.5784C20.2224 20.8511 20.3172 21.1634 20.3587 21.5151Z" fill="white"/>
</svg>
