<svg width="30" height="34" viewBox="0 0 30 34" fill="none" xmlns="http://www.w3.org/2000/svg">
<path d="M7.51282 0.625977H18.5236L28.5909 10.6934V30.0518C28.5909 31.5501 27.3764 32.7656 25.8781 32.7656H7.51282C6.01457 32.7655 4.79993 31.55 4.79993 30.0518V3.33887C4.80007 1.8407 6.01465 0.626119 7.51282 0.625977Z" stroke="#DBDBDB" stroke-width="1.25217" stroke-linecap="round"/>
<rect y="15.8608" width="28.8" height="13.3565" rx="1.66957" fill="#3873FF"/>
<path d="M4.97163 25.4608H2.81946V19.3896H4.98942C5.60009 19.3896 6.12578 19.5112 6.56649 19.7543C7.00721 19.9954 7.34614 20.3422 7.58329 20.7948C7.82242 21.2474 7.94199 21.7889 7.94199 22.4193C7.94199 23.0517 7.82242 23.5952 7.58329 24.0497C7.34614 24.5043 7.00523 24.8531 6.56056 25.0962C6.11788 25.3392 5.58823 25.4608 4.97163 25.4608ZM4.10305 24.361H4.91827C5.29772 24.361 5.61689 24.2938 5.87578 24.1594C6.13665 24.023 6.3323 23.8126 6.46274 23.528C6.59515 23.2414 6.66136 22.8719 6.66136 22.4193C6.66136 21.9707 6.59515 21.6041 6.46274 21.3195C6.3323 21.0349 6.13764 20.8254 5.87875 20.691C5.61985 20.5566 5.30068 20.4894 4.92124 20.4894H4.10305V24.361Z" fill="white"/>
<path d="M14.3049 22.4252C14.3049 23.0873 14.1794 23.6505 13.9284 24.1149C13.6794 24.5794 13.3395 24.9341 12.9087 25.1792C12.4798 25.4223 11.9976 25.5438 11.462 25.5438C10.9225 25.5438 10.4383 25.4213 10.0095 25.1762C9.58061 24.9311 9.24168 24.5764 8.99267 24.112C8.74366 23.6476 8.61915 23.0853 8.61915 22.4252C8.61915 21.7632 8.74366 21.1999 8.99267 20.7355C9.24168 20.2711 9.58061 19.9173 10.0095 19.6742C10.4383 19.4292 10.9225 19.3066 11.462 19.3066C11.9976 19.3066 12.4798 19.4292 12.9087 19.6742C13.3395 19.9173 13.6794 20.2711 13.9284 20.7355C14.1794 21.1999 14.3049 21.7632 14.3049 22.4252ZM13.0035 22.4252C13.0035 21.9964 12.9393 21.6347 12.8109 21.3402C12.6844 21.0458 12.5055 20.8225 12.2743 20.6703C12.0431 20.5181 11.7723 20.442 11.462 20.442C11.1518 20.442 10.881 20.5181 10.6498 20.6703C10.4186 20.8225 10.2387 21.0458 10.1103 21.3402C9.98378 21.6347 9.92054 21.9964 9.92054 22.4252C9.92054 22.8541 9.98378 23.2157 10.1103 23.5102C10.2387 23.8047 10.4186 24.028 10.6498 24.1802C10.881 24.3323 11.1518 24.4084 11.462 24.4084C11.7723 24.4084 12.0431 24.3323 12.2743 24.1802C12.5055 24.028 12.6844 23.8047 12.8109 23.5102C12.9393 23.2157 13.0035 22.8541 13.0035 22.4252Z" fill="white"/>
<path d="M20.4455 21.5151H19.1471C19.1234 21.3472 19.075 21.1979 19.0019 21.0675C18.9287 20.9351 18.8349 20.8225 18.7202 20.7296C18.6056 20.6367 18.4732 20.5655 18.323 20.5161C18.1748 20.4667 18.0137 20.442 17.8398 20.442C17.5256 20.442 17.2519 20.5201 17.0186 20.6762C16.7854 20.8304 16.6046 21.0557 16.4762 21.3521C16.3477 21.6466 16.2835 22.0043 16.2835 22.4252C16.2835 22.858 16.3477 23.2217 16.4762 23.5161C16.6066 23.8106 16.7884 24.0329 17.0216 24.1831C17.2548 24.3333 17.5246 24.4084 17.8309 24.4084C18.0028 24.4084 18.1619 24.3857 18.3082 24.3402C18.4564 24.2948 18.5878 24.2286 18.7024 24.1416C18.8171 24.0527 18.9119 23.945 18.987 23.8185C19.0641 23.692 19.1175 23.5477 19.1471 23.3857L20.4455 23.3916C20.4119 23.6703 20.3279 23.9391 20.1936 24.1979C20.0611 24.4549 19.8823 24.6851 19.657 24.8887C19.4337 25.0902 19.1669 25.2503 18.8566 25.3689C18.5483 25.4855 18.1995 25.5438 17.8102 25.5438C17.2686 25.5438 16.7845 25.4213 16.3576 25.1762C15.9327 24.9311 15.5967 24.5764 15.3497 24.112C15.1046 23.6476 14.9821 23.0853 14.9821 22.4252C14.9821 21.7632 15.1066 21.1999 15.3556 20.7355C15.6046 20.2711 15.9426 19.9173 16.3694 19.6742C16.7963 19.4292 17.2766 19.3066 17.8102 19.3066C18.1619 19.3066 18.488 19.356 18.7884 19.4549C19.0908 19.5537 19.3586 19.6979 19.5918 19.8877C19.825 20.0754 20.0147 20.3057 20.1609 20.5784C20.3092 20.8511 20.404 21.1634 20.4455 21.5151Z" fill="white"/>
<path d="M22.2721 19.3896L23.4965 21.4588H23.5439L24.7741 19.3896H26.2237L24.371 22.4252L26.2652 25.4608H24.7889L23.5439 23.3887H23.4965L22.2514 25.4608H20.781L22.6812 22.4252L20.8166 19.3896H22.2721Z" fill="white"/>
</svg>
