<svg width="30" height="34" viewBox="0 0 30 34" fill="none" xmlns="http://www.w3.org/2000/svg">
<path d="M4.17395 3.33913C4.17395 1.49498 5.66893 0 7.51308 0H18.7826L29.2174 10.4348V30.0522C29.2174 31.8963 27.7225 33.3913 25.8783 33.3913H7.51308C5.66893 33.3913 4.17395 31.8963 4.17395 30.0522V3.33913Z" fill="white"/>
<path fill-rule="evenodd" clip-rule="evenodd" d="M29.2174 10.4348L18.7826 0H7.51308C5.66893 0 4.17395 1.49498 4.17395 3.33913V30.0522C4.17395 31.8963 5.66893 33.3913 7.51308 33.3913H25.8783C27.7225 33.3913 29.2174 31.8963 29.2174 30.0522V10.4348ZM27.2379 10.2261L18.9913 1.97954V8.34783C18.9913 9.38516 19.8323 10.2261 20.8696 10.2261H27.2379ZM17.7392 1.25217V8.34783C17.7392 10.0767 19.1407 11.4783 20.8696 11.4783H27.9653V30.0522C27.9653 31.2048 27.0309 32.1391 25.8783 32.1391H7.51308C6.36049 32.1391 5.42612 31.2048 5.42612 30.0522V3.33913C5.42612 2.18654 6.36049 1.25217 7.51308 1.25217H17.7392Z" fill="#DBDBDB"/>
<rect y="15.8608" width="20.4522" height="13.3565" rx="1.66957" fill="#FF1607"/>
<path d="M2.73999 25.4608V19.3896H5.13525C5.59572 19.3896 5.98801 19.4776 6.31212 19.6535C6.63624 19.8274 6.88327 20.0695 7.05323 20.3798C7.22517 20.6881 7.31114 21.0438 7.31114 21.447C7.31114 21.8501 7.22418 22.2059 7.05027 22.5142C6.87635 22.8225 6.62438 23.0626 6.29434 23.2345C5.96627 23.4064 5.56904 23.4924 5.10264 23.4924H3.57596V22.4638H4.89513C5.14216 22.4638 5.34572 22.4213 5.5058 22.3363C5.66786 22.2493 5.78841 22.1298 5.86746 21.9776C5.94849 21.8234 5.989 21.6466 5.989 21.447C5.989 21.2454 5.94849 21.0695 5.86746 20.9193C5.78841 20.7671 5.66786 20.6495 5.5058 20.5665C5.34375 20.4815 5.13821 20.4391 4.8892 20.4391H4.02359V25.4608H2.73999Z" fill="white"/>
<path d="M10.1301 25.4608H7.97793V19.3896H10.1479C10.7586 19.3896 11.2842 19.5112 11.725 19.7543C12.1657 19.9954 12.5046 20.3422 12.7418 20.7948C12.9809 21.2474 13.1005 21.7889 13.1005 22.4193C13.1005 23.0517 12.9809 23.5952 12.7418 24.0497C12.5046 24.5043 12.1637 24.8531 11.719 25.0962C11.2763 25.3393 10.7467 25.4608 10.1301 25.4608ZM9.26152 24.361H10.0767C10.4562 24.361 10.7754 24.2938 11.0342 24.1594C11.2951 24.023 11.4908 23.8126 11.6212 23.528C11.7536 23.2414 11.8198 22.8719 11.8198 22.4193C11.8198 21.9707 11.7536 21.6041 11.6212 21.3195C11.4908 21.0349 11.2961 20.8254 11.0372 20.691C10.7783 20.5566 10.4592 20.4895 10.0797 20.4895H9.26152V24.361Z" fill="white"/>
<path d="M13.8843 25.4608V19.3896H17.9041V20.4479H15.1679V21.8946H17.6373V22.9529H15.1679V25.4608H13.8843Z" fill="white"/>
</svg>
