<svg width="30" height="34" viewBox="0 0 30 34" fill="none" xmlns="http://www.w3.org/2000/svg">
<path d="M7.51282 0.625977H18.5236L28.5909 10.6934V30.0518C28.5909 31.5501 27.3764 32.7656 25.8781 32.7656H7.51282C6.01457 32.7655 4.79993 31.55 4.79993 30.0518V3.33887C4.80007 1.8407 6.01465 0.626119 7.51282 0.625977Z" stroke="#DBDBDB" stroke-width="1.25217" stroke-linecap="round"/>
<rect y="15.8608" width="21.287" height="13.3565" rx="1.66957" fill="#344054"/>
<path d="M2.54712 20.4479V19.3896H7.53329V20.4479H5.67459V25.4608H4.40581V20.4479H2.54712Z" fill="white"/>
<path d="M9.39103 19.3896L10.6153 21.4588H10.6628L11.893 19.3896H13.3426L11.4898 22.4252L13.3841 25.4608H11.9078L10.6628 23.3887H10.6153L9.37028 25.4608H7.89993L9.80012 22.4252L7.9355 19.3896H9.39103Z" fill="white"/>
<path d="M13.7567 20.4479V19.3896H18.7429V20.4479H16.8842V25.4608H15.6154V20.4479H13.7567Z" fill="white"/>
</svg>
