<svg width="30" height="34" viewBox="0 0 30 34" fill="none" xmlns="http://www.w3.org/2000/svg">
<path d="M7.51279 0.625977H18.5235L28.5909 10.6934V30.0518C28.5909 31.5501 27.3764 32.7656 25.878 32.7656H7.51279C6.01454 32.7655 4.7999 31.55 4.7999 30.0518V3.33887C4.80004 1.8407 6.01462 0.626119 7.51279 0.625977Z" stroke="#DBDBDB" stroke-width="1.25217" stroke-linecap="round"/>
<rect y="15.8608" width="25.8783" height="13.3565" rx="1.66957" fill="#0DB664"/>
<path d="M3.85015 19.3896L5.07445 21.4588H5.12189L6.35212 19.3896H7.80173L5.94896 22.4252L7.84323 25.4608H6.36694L5.12189 23.3887H5.07445L3.8294 25.4608H2.35904L4.25924 22.4252L2.39461 19.3896H3.85015Z" fill="white"/>
<path d="M8.44702 25.4608V19.3896H9.73062V24.4025H12.3334V25.4608H8.44702Z" fill="white"/>
<path d="M16.31 21.1357C16.2862 20.8966 16.1845 20.7108 16.0046 20.5784C15.8248 20.446 15.5807 20.3798 15.2724 20.3798C15.0629 20.3798 14.886 20.4094 14.7418 20.4687C14.5975 20.526 14.4868 20.606 14.4098 20.7088C14.3347 20.8116 14.2971 20.9282 14.2971 21.0586C14.2932 21.1673 14.3159 21.2622 14.3653 21.3432C14.4167 21.4242 14.4868 21.4944 14.5758 21.5537C14.6647 21.611 14.7675 21.6614 14.8841 21.7049C15.0007 21.7464 15.1252 21.7819 15.2576 21.8116L15.803 21.942C16.0679 22.0013 16.3109 22.0804 16.5323 22.1792C16.7536 22.278 16.9453 22.3995 17.1074 22.5438C17.2694 22.6881 17.3949 22.858 17.4839 23.0537C17.5748 23.2493 17.6212 23.4736 17.6232 23.7266C17.6212 24.0981 17.5264 24.4203 17.3386 24.693C17.1528 24.9638 16.8841 25.1742 16.5323 25.3244C16.1825 25.4726 15.7606 25.5468 15.2665 25.5468C14.7764 25.5468 14.3495 25.4717 13.9858 25.3215C13.6242 25.1713 13.3416 24.9489 13.138 24.6545C12.9364 24.358 12.8307 23.9914 12.8208 23.5547H14.0629C14.0768 23.7582 14.1351 23.9282 14.2378 24.0645C14.3426 24.1989 14.4819 24.3007 14.6558 24.3699C14.8317 24.4371 15.0303 24.4707 15.2517 24.4707C15.4691 24.4707 15.6578 24.4391 15.8179 24.3758C15.9799 24.3126 16.1054 24.2246 16.1943 24.112C16.2833 23.9993 16.3277 23.8699 16.3277 23.7236C16.3277 23.5873 16.2872 23.4726 16.2062 23.3798C16.1272 23.2869 16.0106 23.2078 15.8564 23.1426C15.7042 23.0774 15.5175 23.0181 15.2961 22.9647L14.6351 22.7987C14.1232 22.6742 13.7191 22.4796 13.4226 22.2147C13.1262 21.9499 12.9789 21.5932 12.9809 21.1446C12.9789 20.777 13.0768 20.4559 13.2744 20.1811C13.474 19.9064 13.7477 19.692 14.0955 19.5379C14.4434 19.3837 14.8386 19.3066 15.2813 19.3066C15.7319 19.3066 16.1252 19.3837 16.4611 19.5379C16.7991 19.692 17.0619 19.9064 17.2497 20.1811C17.4374 20.4559 17.5343 20.774 17.5402 21.1357H16.31Z" fill="white"/>
<path d="M19.5232 19.3896L20.7475 21.4588H20.7949L22.0252 19.3896H23.4748L21.622 22.4252L23.5163 25.4608H22.04L20.7949 23.3887H20.7475L19.5024 25.4608H18.0321L19.9323 22.4252L18.0677 19.3896H19.5232Z" fill="white"/>
</svg>
